name D:\school\WTK\thesis\model\3dpredictsim\Results\test_WL_v2\Fal_s1_bCst_PF_Natali2010_ls135_k150_d05_Mmtp_ig24_v3.mot
datacolumns 128
datarows 4
range 1.16471488 1.19965633
endheader
time	pelvis_tilt	pelvis_list	pelvis_rotation	pelvis_tx	pelvis_ty	pelvis_tz	hip_flexion_l	hip_adduction_l	hip_rotation_l	hip_flexion_r	hip_adduction_r	hip_rotation_r	knee_angle_l	knee_angle_r	ankle_angle_l	ankle_angle_r	subtalar_angle_l	subtalar_angle_r	tmt_angle_l	tmt_angle_r	mtp_angle_l	mtp_angle_r	lumbar_extension	lumbar_bending	lumbar_rotation	arm_flex_l	arm_add_l	arm_rot_l	arm_flex_r	arm_add_r	arm_rot_r	elbow_flex_l	elbow_flex_r	pro_sup_l	pro_sup_r	glut_med1_l/activation	glut_med2_l/activation	glut_med3_l/activation	glut_min1_l/activation	glut_min2_l/activation	glut_min3_l/activation	semimem_l/activation	semiten_l/activation	bifemlh_l/activation	bifemsh_l/activation	sar_l/activation	add_long_l/activation	add_brev_l/activation	add_mag1_l/activation	add_mag2_l/activation	add_mag3_l/activation	tfl_l/activation	pect_l/activation	grac_l/activation	glut_max1_l/activation	glut_max2_l/activation	glut_max3_l/activation	iliacus_l/activation	psoas_l/activation	quad_fem_l/activation	gem_l/activation	peri_l/activation	rect_fem_l/activation	vas_med_l/activation	vas_int_l/activation	vas_lat_l/activation	med_gas_l/activation	lat_gas_l/activation	soleus_l/activation	tib_post_l/activation	flex_dig_l/activation	flex_hal_l/activation	tib_ant_l/activation	per_brev_l/activation	per_long_l/activation	per_tert_l/activation	ext_dig_l/activation	ext_hal_l/activation	ercspn_l/activation	intobl_l/activation	extobl_l/activation	glut_med1_r/activation	glut_med2_r/activation	glut_med3_r/activation	glut_min1_r/activation	glut_min2_r/activation	glut_min3_r/activation	semimem_r/activation	semiten_r/activation	bifemlh_r/activation	bifemsh_r/activation	sar_r/activation	add_long_r/activation	add_brev_r/activation	add_mag1_r/activation	add_mag2_r/activation	add_mag3_r/activation	tfl_r/activation	pect_r/activation	grac_r/activation	glut_max1_r/activation	glut_max2_r/activation	glut_max3_r/activation	iliacus_r/activation	psoas_r/activation	quad_fem_r/activation	gem_r/activation	peri_r/activation	rect_fem_r/activation	vas_med_r/activation	vas_int_r/activation	vas_lat_r/activation	med_gas_r/activation	lat_gas_r/activation	soleus_r/activation	tib_post_r/activation	flex_dig_r/activation	flex_hal_r/activation	tib_ant_r/activation	per_brev_r/activation	per_long_r/activation	per_tert_r/activation	ext_dig_r/activation	ext_hal_r/activation	ercspn_r/activation	intobl_r/activation	extobl_r/activation	
          1.16471488	         -2.92819331	         -2.77208042	          5.63985017	          1.45589360	          0.91839521	         -0.00202048	        -16.33849923	         -1.31123507	          7.75371273	         29.46491523	          3.87215723	         -3.85730241	        -10.06967860	        -10.25206514	          0.07701033	          8.65008311	          4.94228620	         -4.61326401	          1.27688919	         -3.29274357	         11.45294944	         -1.24796880	         -2.38260443	          0.91951119	         -2.36778489	          5.32237654	        -13.45480869	         17.01033980	         -5.69181271	        -13.46808339	          4.94482648	         39.00354279	         16.83824297	         86.51662706	         86.51662706	          0.27222170	          0.08513578	          0.05000092	          0.29593396	          0.17504546	          0.08966030	          0.05000242	          0.05000049	          0.05000033	          0.05050487	          0.10164174	          0.10361560	          0.06311907	          0.05000349	          0.05000887	          0.05000211	          0.27960313	          0.06259876	          0.05000156	          0.05000235	          0.05000237	          0.05000257	          0.46050790	          0.60999495	          0.05000038	          0.05000090	          0.05000043	          0.36797624	          0.05869112	          0.05168875	          0.05713090	          0.25762289	          0.35431845	          0.31292792	          0.32443988	          0.17309308	          0.19750690	          0.05000004	          0.05970483	          0.09866180	          0.05000029	          0.10729457	          0.05000038	          0.05000002	          0.05000182	          0.05584155	          0.05970585	          0.05970589	          0.05000040	          0.05970599	          0.05970596	          0.05183220	          0.19942369	          0.07925403	          0.21504993	          0.05970634	          0.05000030	          0.14321982	          0.27953572	          0.19426737	          0.20798456	          0.11828384	          0.05000019	          0.05005733	          0.16396624	          0.05000500	          0.11656052	          0.16638681	          0.05000074	          0.05000033	          0.18824890	          0.29373576	          0.16707345	          0.05000020	          0.08255754	          0.08089440	          0.07386229	          0.06678411	          0.06592776	          0.05936638	          0.05000006	          0.05971110	          0.05979183	          0.50103817	          0.27719951	          0.17024761	          0.20601487	          0.49082589	          0.21709502	          0.05754339	          0.11515429	          0.10166269	
          1.17636203	         -2.93017641	         -2.83951957	          5.95270108	          1.47380449	          0.91758614	         -0.00185149	        -16.35825063	         -1.62980160	          7.59868440	         28.76064318	          4.23302586	         -3.64743933	        -11.70732013	        -10.59687634	         -0.56424562	          8.03654376	          6.04971561	         -5.04677211	         -0.02925086	         -3.34410213	         14.37297119	         -1.14567561	         -2.14683728	          1.08847833	         -2.46389284	          4.95553904	        -13.46713101	         17.30050346	         -6.69256952	        -13.45610857	          4.64517066	         40.30729330	         16.49814743	         86.51662706	         86.51662706	          0.22796878	          0.07129594	          0.05000048	          0.24782651	          0.14658973	          0.07508497	          0.05000538	          0.05000136	          0.05000120	          0.05000056	          0.08511995	          0.20743655	          0.05285979	          0.05970606	          0.05067262	          0.05970457	          0.23415033	          0.10164263	          0.05007350	          0.05001029	          0.05000426	          0.05000402	          0.38690987	          0.58208455	          0.05000160	          0.05001609	          0.05000065	          0.31910435	          0.14921049	          0.15449007	          0.16583370	          0.21574304	          0.29671954	          0.26205755	          0.28219119	          0.14495495	          0.16539989	          0.05000002	          0.05000015	          0.09139005	          0.05000013	          0.19501103	          0.05000022	          0.05864988	          0.07129574	          0.06885097	          0.05000001	          0.05000007	          0.12143485	          0.05000007	          0.05000009	          0.05000012	          0.16945879	          0.06637041	          0.18009095	          0.05000052	          0.05970600	          0.11993802	          0.32515971	          0.32912816	          0.22838765	          0.13301657	          0.05000047	          0.07130690	          0.15561519	          0.06974634	          0.12829145	          0.15088385	          0.05000018	          0.05000110	          0.53886887	          0.24598538	          0.13991368	          0.05970603	          0.07841374	          0.07869356	          0.07003591	          0.07129511	          0.07129584	          0.06213924	          0.05970602	          0.05000452	          0.05007256	          0.51262437	          0.32094612	          0.21726056	          0.17252479	          0.48552421	          0.18180378	          0.05000001	          0.09643452	          0.08513615	
          1.18800918	         -2.92848868	         -2.90909761	          6.23145463	          1.49205191	          0.91675744	         -0.00170903	        -16.37437439	         -1.95642129	          7.42778467	         27.93868433	          4.47104889	         -3.40255298	        -13.32038146	        -11.12096786	         -1.36309530	          7.53635177	          7.15571569	         -5.48801019	         -1.50959054	         -3.54582490	         17.62938462	         -1.04511333	         -1.88857106	          1.26734786	         -2.54647007	          4.49914709	        -13.47674143	         17.50744883	         -7.72123265	        -13.45287665	          4.40182873	         41.59126518	         16.20775422	         86.51662706	         86.51662706	          0.32474078	          0.05970595	          0.05000009	          0.28252563	          0.12275990	          0.06287907	          0.05000195	          0.05000025	          0.05000019	          0.05000059	          0.07129355	          0.17371535	          0.05000592	          0.05000077	          0.05000111	          0.05000054	          0.19612017	          0.08513013	          0.05000074	          0.05000169	          0.05000107	          0.05000064	          0.34267461	          0.56450804	          0.05000012	          0.05000048	          0.05000020	          0.29713529	          0.12495475	          0.12937626	          0.13887562	          0.18067129	          0.24848405	          0.21945679	          0.23631778	          0.12139081	          0.13851212	          0.06357768	          0.05852485	          0.13883280	          0.05000037	          0.31369921	          0.05000051	          0.05323460	          0.05970573	          0.05765840	          0.26251079	          0.27599272	          0.32428777	          0.44889274	          0.29848503	          0.25021217	          0.14887785	          0.08487273	          0.15462127	          0.08513625	          0.05000152	          0.10044066	          0.27230098	          0.27562438	          0.19126070	          0.15188435	          0.05000058	          0.05971592	          0.13031891	          0.15640253	          0.15418582	          0.12635674	          0.05451383	          0.05000075	          0.45126900	          0.20599752	          0.26419657	          0.05000015	          0.06566670	          0.06590103	          0.05865078	          0.05970527	          0.05970592	          0.05203778	          0.05000017	          0.05000035	          0.05000036	          0.57222408	          0.35627440	          0.18197863	          0.37383227	          0.54862641	          0.15225070	          0.06583104	          0.13089839	          0.07129621	
          1.19965633	         -2.92585639	         -2.96870701	          6.46962436	          1.51036436	          0.91595270	         -0.00154427	        -16.33330930	         -2.27429467	          7.25592350	         27.09717078	          4.67348989	         -3.15476787	        -14.97756104	        -11.62837386	         -2.30431026	          7.06559333	          8.26908102	         -5.91892838	         -3.12863381	         -3.47971071	         21.13821004	         -0.90909594	         -1.63819663	          1.44520078	         -2.61932665	          3.99904653	        -13.49307767	         17.65752253	         -8.71508316	        -13.45093125	          4.21970464	         42.82826536	         15.93165261	         86.51662706	         86.51662706	          0.27195024	          0.05000038	          0.05000018	          0.23659775	          0.10280387	          0.05265748	          0.05000337	          0.05000041	          0.05000035	          0.05000033	          0.05970472	          0.19388787	          0.09964830	          0.05005575	          0.05001109	          0.05003711	          0.16423874	          0.07129273	          0.05000147	          0.05000322	          0.05000208	          0.05000153	          0.28696863	          0.53118703	          0.05000029	          0.05000124	          0.05000037	          0.24883227	          0.16600944	          0.16335174	          0.15557801	          0.15130090	          0.20808984	          0.18378132	          0.19790182	          0.10165725	          0.11599526	          0.17242697	          0.09156332	          0.11669767	          0.05014981	          0.41081314	          0.05000537	          0.07256658	          0.05000002	          0.05000005	          0.36543531	          0.38659534	          0.42868662	          0.37591977	          0.24996372	          0.27979227	          0.12938901	          0.09619404	          0.13240615	          0.07129648	          0.05000145	          0.08411282	          0.22803509	          0.23081841	          0.16016955	          0.18570046	          0.05000053	          0.05000889	          0.10913435	          0.26584977	          0.21708214	          0.18247001	          0.05000009	          0.05000011	          0.37790964	          0.17251015	          0.22124860	          0.05000013	          0.09303481	          0.10095958	          0.07628009	          0.05000006	          0.05000019	          0.05000003	          0.05000023	          0.05000065	          0.05000056	          0.65997580	          0.38057952	          0.19819253	          0.52891794	          0.57363961	          0.27543321	          0.08096942	          0.10961923	          0.05970612	
